<svg width="1600" height="1000" viewBox="0 0 1600 1000" fill="none" xmlns="http://www.w3.org/2000/svg">
<g style="mix-blend-mode:hard-light" opacity="0.55" filter="url(#filter0_f_1_1787)">
<path d="M944.832 189.351C751.408 189.956 617.779 298.367 646.362 431.494C674.946 564.621 854.918 672.052 1048.34 671.447C1241.77 670.843 1375.4 562.432 1346.81 429.305C1318.23 296.178 1138.26 188.747 944.832 189.351Z" fill="url(#paint0_linear_1_1787)"/>
<path d="M726.1 732.736C920.602 643.14 1033.93 474.233 979.222 355.473C924.515 236.712 722.492 213.07 527.99 302.666C333.488 392.263 220.162 561.169 274.868 679.93C329.575 798.69 531.598 822.332 726.1 732.736Z" fill="url(#paint1_linear_1_1787)"/>
</g>
<defs>
<filter id="filter0_f_1_1787" x="-71.8901" y="-143.651" width="1755.55" height="1263.73" filterUnits="userSpaceOnUse" color-interpolation-filters="sRGB">
<feFlood flood-opacity="0" result="BackgroundImageFix"/>
<feBlend mode="normal" in="SourceGraphic" in2="BackgroundImageFix" result="shape"/>
<feGaussianBlur stdDeviation="166.5" result="effect1_foregroundBlur_1_1787"/>
</filter>
<linearGradient id="paint0_linear_1_1787" x1="668.702" y1="425.789" x2="1297.41" y2="618.268" gradientUnits="userSpaceOnUse">
<stop stop-color="#001AFF"/>
<stop offset="1" stop-color="#00F7AE"/>
</linearGradient>
<linearGradient id="paint1_linear_1_1787" x1="396.574" y1="786.404" x2="737.868" y2="307.127" gradientUnits="userSpaceOnUse">
<stop stop-color="#FFC83A"/>
<stop offset="0.504191" stop-color="#FF008A"/>
<stop offset="1" stop-color="#6100FF"/>
</linearGradient>
</defs>
</svg>
